<svg xmlns="http://www.w3.org/2000/svg" width="40" height="40" viewBox="0 0 40 40">
    <defs>
        <clipPath id="8kgyrg1ofa">
            <path data-name="사각형 16715" style="fill:none" d="M0 0h17.201v22.618H0z"/>
        </clipPath>
    </defs>
    <g transform="translate(-59 -19.345)">
        <rect data-name="사각형 16017" width="40" height="40" rx="20" transform="translate(59 19.345)" style="fill:#4ba52f"/>
        <g data-name="그룹 71430">
            <g data-name="그룹 71429" transform="translate(70 28.345)" style="clip-path:url(#8kgyrg1ofa)">
                <path data-name="패스 18597" d="M12.679 32.654c.048.031.043.018 0-.031-.044.048-.049.062 0 .031z" transform="translate(-4.079 -11.299)" style="stroke:#fff;stroke-linejoin:round;stroke-width:1.4px;fill:none"/>
                <path data-name="패스 18598" d="M8.248.7A7.623 7.623 0 0 0 .7 8.4a9.916 9.916 0 0 0 .605 3.417c1.119 3.612 6.473 8.5 6.943 9.014.47-.52 5.817-5.4 6.937-9A9.925 9.925 0 0 0 15.8 8.4 7.623 7.623 0 0 0 8.248.7zm0 11.071A3.774 3.774 0 1 1 12.022 8a3.774 3.774 0 0 1-3.774 3.771z" transform="translate(.353 .545)" style="stroke:#fff;stroke-linejoin:round;stroke-width:1.4px;fill:none"/>
            </g>
        </g>
    </g>
</svg>
