<svg xmlns="http://www.w3.org/2000/svg" width="30" height="30" viewBox="0 0 30 30">
    <defs>
        <clipPath id="zzg3dt5x5a">
            <path data-name="사각형 16411" style="fill:#fff" d="M0 0h14.4v15.095H0z"/>
        </clipPath>
    </defs>
    <g data-name="그룹 70653">
        <g data-name="그룹 70652" transform="translate(-60 113)">
            <rect data-name="사각형 16019" width="30" height="30" rx="15" transform="translate(60 -113)" style="fill:#1c72f3"/>
            <g data-name="그룹 70657">
                <g data-name="그룹 70656" transform="translate(67.888 -106)" style="clip-path:url(#zzg3dt5x5a)">
                    <path data-name="패스 18595" d="M3.737 6.4H.81v7.89h2.927zm-1.868 5.7a.4.4 0 0 1 .809 0v.938a.4.4 0 0 1-.809 0zm2.025-6.506L6.422.731A1.346 1.346 0 0 1 7.624 0H8a1.342 1.342 0 0 1 .56.119l.028.014a1.359 1.359 0 0 1 .433.332l.022.027a1.316 1.316 0 0 1 .3 1.048l-.56 4.05h4.259a1.349 1.349 0 0 1 .958.4l.024.026a1.348 1.348 0 0 1 .374.931v3.742A4.417 4.417 0 0 1 9.991 15.1H4.142a.415.415 0 0 1-.057 0H.4a.4.4 0 0 1-.405-.4V6A.4.4 0 0 1 .4 5.6zM7.14 1.1 4.547 6.094v8.192h5.444a3.606 3.606 0 0 0 3.6-3.6V6.945a.544.544 0 0 0-.144-.37l-.017-.016a.544.544 0 0 0-.385-.16H8.321a.4.4 0 0 1-.4-.459l.623-4.51a.546.546 0 0 0-.015-.23.529.529 0 0 0-.1-.184L8.415 1a.552.552 0 0 0-.169-.138L8.232.856A.549.549 0 0 0 8 .81h-.38a.517.517 0 0 0-.48.29" style="stroke:#fff;stroke-width:.3px;fill-rule:evenodd;fill:#fff"/>
                </g>
            </g>
        </g>
    </g>
</svg>
