<svg xmlns="http://www.w3.org/2000/svg" width="30" height="30" viewBox="0 0 30 30">
    <g transform="translate(-925 -435)">
        <circle data-name="타원 62" cx="15" cy="15" r="15" transform="translate(925 435)"/>
        <path data-name="패스 18427" d="M408.931 145.816a6.678 6.678 0 0 1-1.879.508 3.247 3.247 0 0 0 1.438-1.781 6.658 6.658 0 0 1-2.076.781 3.289 3.289 0 0 0-2.385-1.017 3.222 3.222 0 0 0-3.187 3.953 9.341 9.341 0 0 1-6.74-3.363 3.168 3.168 0 0 0-.441 1.617 3.2 3.2 0 0 0 1.454 2.679 3.31 3.31 0 0 1-1.48-.4v.041a3.237 3.237 0 0 0 2.623 3.157 3.444 3.444 0 0 1-.86.111 3.319 3.319 0 0 1-.618-.057 3.269 3.269 0 0 0 3.057 2.235 6.635 6.635 0 0 1-4.063 1.377 6.883 6.883 0 0 1-.779-.044 9.361 9.361 0 0 0 5.012 1.445 9.162 9.162 0 0 0 9.3-9.158c0-.138 0-.278-.009-.416a6.634 6.634 0 0 0 1.633-1.666" transform="translate(539.506 299.694)" style="fill:#fff"/>
    </g>
</svg>
