<svg xmlns="http://www.w3.org/2000/svg" width="30" height="30" viewBox="0 0 30 30">
    <g transform="translate(-244 -849)">
        <circle data-name="타원 62" cx="15" cy="15" r="15" transform="translate(244 849)"/>
        <path data-name="패스 18428" d="M244.532 142.638h-6.418a.778.778 0 0 0-.78.776v6.366a.777.777 0 0 0 .78.776h2.96a4.81 4.81 0 0 1-.8 2.311 9.3 9.3 0 0 1-1.624 1.743.426.426 0 0 0-.151.311.447.447 0 0 0 .109.262l2.064 2.315a.485.485 0 0 0 .185.124.319.319 0 0 0 .273-.031 10.369 10.369 0 0 0 4.179-8.055v-6.121a.779.779 0 0 0-.781-.776" transform="translate(17.917 713.862)" style="fill:#fff"/>
    </g>
</svg>
