<svg xmlns="http://www.w3.org/2000/svg" width="100" height="37" viewBox="0 0 100 37">
    <g data-name="그룹 69239">
        <g data-name="logo">
            <g data-name="그룹 3">
                <g data-name="그룹 4">
                    <path data-name="패스 1" d="M7.574 14.175a8.83 8.83 0 0 0 7.5 4.208c4.639 0 7.193-4 7.193-4l.333 1.067c-2.148 2.789-5.985 4.469-10.278 4.469-4.943 0-9.205-2.354-11.167-5.748A8.377 8.377 0 0 1 0 9.96C0 4.459 5.515 0 12.318 0c4.807 0 8.677 2.055 10.709 5.034l-8.066 4.823 4.6-7.056a8.99 8.99 0 0 0-4.6-1.6A8.692 8.692 0 0 0 6.35 9.847a8.258 8.258 0 0 0 1.224 4.328" transform="translate(1.242 1.241)" style="fill:#dc000c;fill-rule:evenodd"/>
                    <path data-name="패스 2" d="M51.268 17.285a3.3 3.3 0 0 0-.036.486 3.241 3.241 0 0 0 6.483 0 3.276 3.276 0 0 0-.036-.488 3.242 3.242 0 0 0-6.41 0m12.027 0 1.611 5.426h-5.652l-1.111-3.716c-.745 2.141-3.255 3.716-6.238 3.716-3.569 0-6.462-2.254-6.462-5.034 0-.13.007-.26.019-.392.254-2.6 3.042-4.644 6.443-4.644a7.346 7.346 0 0 1 4.848 1.706L55.215 9.2H48.73a44.383 44.383 0 0 1 5.864-2.388C59.379 5.07 60.9 9.2 60.9 9.2z" transform="translate(-21.202 -1.873)" style="fill:#dc000c;fill-rule:evenodd"/>
                    <path data-name="패스 3" d="M98.462 17.294v5.426h-5.816V10.8a1.588 1.588 0 0 0-3.069-.576v12.5h-5.706V9.21h-3.328s4.63-2.8 6.235-2.8a2.817 2.817 0 0 1 2.789 2.658c2.239-1.213 4.46-2.668 5.987-2.668a2.909 2.909 0 0 1 2.908 2.826z" transform="translate(-38.526 -1.884)" style="fill:#dc000c;fill-rule:evenodd"/>
                    <path data-name="패스 4" d="m126.228 17.191.809 2.675a2.1 2.1 0 0 0 2.113 2.063 2.14 2.14 0 0 0 2.141-2.14 2.3 2.3 0 0 0-.014-.247l-.688-2.351-2.416-8.256a2.139 2.139 0 0 0-2.126-1.9 2.473 2.473 0 0 0-2.264 2.073zm9.253 0a8.38 8.38 0 1 1 .42-2.625 8.376 8.376 0 0 1-.42 2.625" transform="translate(-57.578 -1.781)" style="fill:#dc000c;fill-rule:evenodd"/>
                    <path data-name="패스 5" d="M161.311 17.294v5.426H155.6V9.21h-3.191s4.493-2.8 6.1-2.8a2.818 2.818 0 0 1 2.791 2.653c2.24-1.208 4.459-2.658 5.986-2.658a2.909 2.909 0 0 1 2.908 2.826V22.72h-5.814V10.8a1.588 1.588 0 0 0-3.069-.576z" transform="translate(-74.01 -1.884)" style="fill:#dc000c;fill-rule:evenodd"/>
                </g>
                <path data-name="패스 6" d="M5.688 49.687c0 2.791-.763 5.274-3.862 7.018l-.661-.831a6.248 6.248 0 0 0 2.848-2.928l-2.666.285-.159-1.014 3.144-.183a9.219 9.219 0 0 0 .216-1.4H1.712v-.945zm4.238-1.23v10.309H8.8v-5.285H7.624v4.807H6.519v-9.581h1.105v3.816H8.8v-4.066z" transform="translate(.077 -22.627)" style="fill:#1a1311"/>
                <path data-name="패스 7" d="M30.669 54.072v.957h-9.308v-.957h4.067V52.7h-2.859v-3.561h1.173v2.62h5.867v.941H26.6v1.367zm-6.995 3.862h6.015v.957h-7.178v-3.122h1.162z" transform="translate(-9.663 -22.956)" style="fill:#1a1311"/>
                <path data-name="패스 8" d="M50.887 57.38v.968h-9.308v-.968h3.475v-2.586h1.185v2.586zm-2.21-4.614c.023-.558.023-1.071.023-1.538h-6.028v-.945h7.189v.945a21 21 0 0 1-.445 4.853l-1.162-.136a18.433 18.433 0 0 0 .353-2.279L42.536 54l-.159-.991z" transform="translate(-19.654 -23.507)" style="fill:#1a1311"/>
                <path data-name="패스 9" d="M64.127 55.35a29.457 29.457 0 0 0 4.682-.35l.125.957a28.333 28.333 0 0 1-5.115.365h-.878V52.24h3.589v-1.914h-3.611v-.956h4.8v3.816h-3.592zm6.721 3.418h-1.185V48.435h1.185z" transform="translate(-30.067 -22.616)" style="fill:#1a1311"/>
                <path data-name="패스 10" d="M87.543 52.864c0 2.221-1.1 3.623-2.643 3.623s-2.643-1.4-2.643-3.623 1.105-3.634 2.643-3.634 2.643 1.413 2.643 3.635m-1.128 0c0-1.607-.627-2.575-1.515-2.575s-1.515.968-1.515 2.575.615 2.574 1.515 2.574 1.515-.968 1.515-2.575m5.32.6h-1.606v5.308h-1.173v-10.3h1.173V52.5h1.607z" transform="translate(-39.515 -22.637)" style="fill:#1a1311"/>
                <path data-name="패스 11" d="M116.567 55.753h-4.09v3.565H111.3v-3.565h-4.033v-.946h9.307zm-8.784-2.62c1.959-.262 3.406-1.39 3.475-2.586h-3.133V49.6h7.575v.945h-3.11c.068 1.2 1.515 2.324 3.475 2.586l-.421.923a5.008 5.008 0 0 1-3.726-2.233 4.984 4.984 0 0 1-3.714 2.233z" transform="translate(-51.727 -23.179)" style="fill:#1a1311"/>
                <path data-name="패스 12" d="M133.194 54.062a4.147 4.147 0 0 1-2.495-2.244 4.255 4.255 0 0 1-2.563 2.427l-.581-.923a3.6 3.6 0 0 0 2.529-3.383v-1h1.2v1a3.408 3.408 0 0 0 2.5 3.2zm-4.124 1.059h6.937v3.634h-1.173v-2.688h-5.764zm6.937-.49h-1.173v-6.174h1.173z" transform="translate(-61.623 -22.627)" style="fill:#1a1311"/>
                <path data-name="패스 13" d="M151.769 55.874c.923-.057 1.857-.114 2.734-.24l.08.854a40.04 40.04 0 0 1-6.573.422l-.148-.969c.82 0 1.766 0 2.734-.034v-1a1.989 1.989 0 0 1-1.926-1.879c0-1.151 1.026-1.915 2.518-1.915s2.506.764 2.506 1.915c0 1-.763 1.7-1.925 1.879zm2.517-5.263h-6.22v-.946h2.534V48.48h1.174v1.185h2.517zm-3.1 3.44c.82 0 1.39-.387 1.39-1.025s-.569-1.014-1.39-1.014-1.4.387-1.4 1.014.569 1.025 1.4 1.025m5.081 4.705h-1.185v-10.3h1.185z" transform="translate(-71.668 -22.627)" style="fill:#1a1311"/>
                <path data-name="패스 14" d="M171.421 51.02a4.992 4.992 0 0 0 2.506 4.454l-.718.934a5.123 5.123 0 0 1-2.369-3.03 5.318 5.318 0 0 1-2.484 3.223l-.718-.945a5.206 5.206 0 0 0 2.608-4.636v-1.687h1.174zm5.969 2.506h-1.607v5.24h-1.173V48.479h1.173v4.078h1.607z" transform="translate(-81.205 -22.637)" style="fill:#1a1311"/>
            </g>
        </g>
    </g>
</svg>
